<svg width="152" height="42" viewBox="0 0 152 42" fill="none" xmlns="http://www.w3.org/2000/svg">
<rect y="5" width="32" height="32" rx="16" fill="url(#paint0_linear_1_3)"/>
<g clip-path="url(#clip0_1_3)">
<path d="M25 13V25.5C25 26.4283 24.6313 27.3185 23.9749 27.9749C23.3185 28.6313 22.4283 29 21.5 29C20.5717 29 19.6815 28.6313 19.0251 27.9749C18.3687 27.3185 18 26.4283 18 25.5C18 24.5717 18.3687 23.6815 19.0251 23.0251C19.6815 22.3687 20.5717 22 21.5 22C22.04 22 22.55 22.12 23 22.34V16.47L13 18.6V27.5C13 28.4283 12.6313 29.3185 11.9749 29.9749C11.3185 30.6313 10.4283 31 9.5 31C8.57174 31 7.6815 30.6313 7.02513 29.9749C6.36875 29.3185 6 28.4283 6 27.5C6 26.5717 6.36875 25.6815 7.02513 25.0251C7.6815 24.3687 8.57174 24 9.5 24C10.04 24 10.55 24.12 11 24.34V16L25 13Z" fill="white"/>
</g>
<path d="M49.952 24.872H45.504L44.768 27H42.416L46.432 15.816H49.04L53.056 27H50.688L49.952 24.872ZM49.344 23.08L47.728 18.408L46.112 23.08H49.344ZM59.8051 27L56.7971 23.224V27H54.5571V15.16H56.7971V21.896L59.7731 18.136H62.6851L58.7811 22.584L62.7171 27H59.8051ZM66.1409 19.432C66.4289 19.0053 66.8235 18.6587 67.3249 18.392C67.8369 18.1253 68.4182 17.992 69.0689 17.992C69.8262 17.992 70.5089 18.1787 71.1169 18.552C71.7355 18.9253 72.2209 19.4587 72.5729 20.152C72.9355 20.8347 73.1169 21.6293 73.1169 22.536C73.1169 23.4427 72.9355 24.248 72.5729 24.952C72.2209 25.6453 71.7355 26.184 71.1169 26.568C70.5089 26.952 69.8262 27.144 69.0689 27.144C68.4075 27.144 67.8262 27.016 67.3249 26.76C66.8342 26.4933 66.4395 26.152 66.1409 25.736V27H63.9009V15.16H66.1409V19.432ZM70.8289 22.536C70.8289 22.0027 70.7169 21.544 70.4929 21.16C70.2795 20.7653 69.9915 20.4667 69.6289 20.264C69.2769 20.0613 68.8929 19.96 68.4769 19.96C68.0715 19.96 67.6875 20.0667 67.3249 20.28C66.9729 20.4827 66.6849 20.7813 66.4609 21.176C66.2475 21.5707 66.1409 22.0347 66.1409 22.568C66.1409 23.1013 66.2475 23.5653 66.4609 23.96C66.6849 24.3547 66.9729 24.6587 67.3249 24.872C67.6875 25.0747 68.0715 25.176 68.4769 25.176C68.8929 25.176 69.2769 25.0693 69.6289 24.856C69.9915 24.6427 70.2795 24.3387 70.4929 23.944C70.7169 23.5493 70.8289 23.08 70.8289 22.536ZM74.1686 22.536C74.1686 21.64 74.3446 20.8453 74.6966 20.152C75.0593 19.4587 75.5446 18.9253 76.1526 18.552C76.7713 18.1787 77.4593 17.992 78.2166 17.992C78.878 17.992 79.454 18.1253 79.9446 18.392C80.446 18.6587 80.846 18.9947 81.1446 19.4V18.136H83.4006V27H81.1446V25.704C80.8566 26.12 80.4566 26.4667 79.9446 26.744C79.4433 27.0107 78.862 27.144 78.2006 27.144C77.454 27.144 76.7713 26.952 76.1526 26.568C75.5446 26.184 75.0593 25.6453 74.6966 24.952C74.3446 24.248 74.1686 23.4427 74.1686 22.536ZM81.1446 22.568C81.1446 22.024 81.038 21.56 80.8246 21.176C80.6113 20.7813 80.3233 20.4827 79.9606 20.28C79.598 20.0667 79.2086 19.96 78.7926 19.96C78.3766 19.96 77.9926 20.0613 77.6406 20.264C77.2886 20.4667 77.0006 20.7653 76.7766 21.16C76.5633 21.544 76.4566 22.0027 76.4566 22.536C76.4566 23.0693 76.5633 23.5387 76.7766 23.944C77.0006 24.3387 77.2886 24.6427 77.6406 24.856C78.0033 25.0693 78.3873 25.176 78.7926 25.176C79.2086 25.176 79.598 25.0747 79.9606 24.872C80.3233 24.6587 80.6113 24.36 80.8246 23.976C81.038 23.5813 81.1446 23.112 81.1446 22.568ZM87.8284 19.512C88.1164 19.0427 88.4897 18.6747 88.9484 18.408C89.4177 18.1413 89.951 18.008 90.5484 18.008V20.36H89.9564C89.2524 20.36 88.719 20.5253 88.3564 20.856C88.0044 21.1867 87.8284 21.7627 87.8284 22.584V27H85.5884V18.136H87.8284V19.512ZM108.046 15.832V27H105.806V19.736L102.814 27H101.118L98.1096 19.736V27H95.8696V15.832H98.4136L101.966 24.136L105.518 15.832H108.046ZM118.628 18.136V27H116.372V25.88C116.084 26.264 115.706 26.568 115.236 26.792C114.778 27.0053 114.276 27.112 113.732 27.112C113.039 27.112 112.426 26.968 111.892 26.68C111.359 26.3813 110.938 25.9493 110.628 25.384C110.33 24.808 110.18 24.1253 110.18 23.336V18.136H112.42V23.016C112.42 23.72 112.596 24.264 112.948 24.648C113.3 25.0213 113.78 25.208 114.388 25.208C115.007 25.208 115.492 25.0213 115.844 24.648C116.196 24.264 116.372 23.72 116.372 23.016V18.136H118.628ZM124.23 27.144C123.505 27.144 122.854 27.016 122.278 26.76C121.702 26.4933 121.244 26.136 120.902 25.688C120.572 25.24 120.39 24.744 120.358 24.2H122.614C122.657 24.5413 122.822 24.824 123.11 25.048C123.409 25.272 123.777 25.384 124.214 25.384C124.641 25.384 124.972 25.2987 125.206 25.128C125.452 24.9573 125.574 24.7387 125.574 24.472C125.574 24.184 125.425 23.9707 125.126 23.832C124.838 23.6827 124.374 23.5227 123.734 23.352C123.073 23.192 122.529 23.0267 122.102 22.856C121.686 22.6853 121.324 22.424 121.014 22.072C120.716 21.72 120.566 21.2453 120.566 20.648C120.566 20.1573 120.705 19.7093 120.982 19.304C121.27 18.8987 121.676 18.5787 122.198 18.344C122.732 18.1093 123.356 17.992 124.07 17.992C125.126 17.992 125.969 18.2587 126.598 18.792C127.228 19.3147 127.574 20.024 127.638 20.92H125.494C125.462 20.568 125.313 20.2907 125.046 20.088C124.79 19.8747 124.444 19.768 124.006 19.768C123.601 19.768 123.286 19.8427 123.062 19.992C122.849 20.1413 122.742 20.3493 122.742 20.616C122.742 20.9147 122.892 21.144 123.19 21.304C123.489 21.4533 123.953 21.608 124.582 21.768C125.222 21.928 125.75 22.0933 126.166 22.264C126.582 22.4347 126.94 22.7013 127.238 23.064C127.548 23.416 127.708 23.8853 127.718 24.472C127.718 24.984 127.574 25.4427 127.286 25.848C127.009 26.2533 126.604 26.5733 126.07 26.808C125.548 27.032 124.934 27.144 124.23 27.144ZM130.693 17.08C130.298 17.08 129.968 16.9573 129.701 16.712C129.445 16.456 129.317 16.1413 129.317 15.768C129.317 15.3947 129.445 15.0853 129.701 14.84C129.968 14.584 130.298 14.456 130.693 14.456C131.088 14.456 131.413 14.584 131.669 14.84C131.936 15.0853 132.069 15.3947 132.069 15.768C132.069 16.1413 131.936 16.456 131.669 16.712C131.413 16.9573 131.088 17.08 130.693 17.08ZM131.797 18.136V27H129.557V18.136H131.797ZM133.434 22.568C133.434 21.6507 133.621 20.8507 133.994 20.168C134.368 19.4747 134.885 18.9413 135.546 18.568C136.208 18.184 136.965 17.992 137.818 17.992C138.917 17.992 139.824 18.2693 140.538 18.824C141.264 19.368 141.749 20.136 141.994 21.128H139.578C139.45 20.744 139.232 20.4453 138.922 20.232C138.624 20.008 138.25 19.896 137.802 19.896C137.162 19.896 136.656 20.1307 136.282 20.6C135.909 21.0587 135.722 21.7147 135.722 22.568C135.722 23.4107 135.909 24.0667 136.282 24.536C136.656 24.9947 137.162 25.224 137.802 25.224C138.709 25.224 139.301 24.8187 139.578 24.008H141.994C141.749 24.968 141.264 25.7307 140.538 26.296C139.813 26.8613 138.906 27.144 137.818 27.144C136.965 27.144 136.208 26.9573 135.546 26.584C134.885 26.2 134.368 25.6667 133.994 24.984C133.621 24.2907 133.434 23.4853 133.434 22.568Z" fill="white"/>
<defs>
<linearGradient id="paint0_linear_1_3" x1="16" y1="5" x2="8.5" y2="42" gradientUnits="userSpaceOnUse">
<stop stop-color="#FA8201"/>
<stop offset="1" stop-color="#D41601"/>
</linearGradient>
<clipPath id="clip0_1_3">
<rect width="24" height="24" fill="white" transform="translate(4 10)"/>
</clipPath>
</defs>
</svg>
